<svg width="665" height="359" viewBox="0 0 665 359" fill="none" xmlns="http://www.w3.org/2000/svg">
<g clip-path="url(#clip0)">
<path d="M76.3478 358.886C76.3478 358.886 7.62961 302.117 79.6184 247.421C151.607 192.724 74.4752 161.174 121.955 110.964C169.435 60.7542 220.712 129.029 252.686 81.9308C293.779 21.404 399.562 -18.0754 449.199 59.2294C490.292 123.235 580.806 69.965 580.806 189.458C580.806 274.397 688.384 252.435 626.047 358.886H76.3478Z" fill="#E2E9FB"/>
<path d="M53.9423 134.343L37.345 358.77L40.4318 359L57.0292 134.573L53.9423 134.343Z" fill="#6F8FE4"/>
<path d="M60.5135 134.357L57.4267 134.586L74.024 359.013L77.1109 358.784L60.5135 134.357Z" fill="#B3C0EC"/>
<path d="M204.223 134.361L201.136 134.59L217.733 359.017L220.82 358.788L204.223 134.361Z" fill="#B3C0EC"/>
<path d="M204.393 134.338L187.796 358.765L190.883 358.994L207.48 134.567L204.393 134.338Z" fill="#6F8FE4"/>
<path d="M217.168 239.854L207.991 134.467H53.9336L63.1108 239.854H217.168Z" fill="#B3C0EC"/>
<path d="M67.5059 235.067H211.943L203.596 139.248H59.1593L67.5059 235.067Z" fill="white"/>
<path d="M84.7771 142.809C78.3184 142.809 73.6292 148.055 74.305 154.532C74.9808 161.003 80.7688 166.255 87.2274 166.255C93.686 166.255 98.3752 161.008 97.6994 154.532C97.0237 148.061 91.2408 142.809 84.7771 142.809Z" fill="#6F8FE4"/>
<path d="M132.556 154.418H120.96L119.747 142.82C119.717 142.82 119.686 142.814 119.649 142.814C113.191 142.814 108.502 148.061 109.177 154.537C109.853 161.009 115.641 166.26 122.1 166.26C128.558 166.26 133.248 161.014 132.572 154.537C132.567 154.491 132.562 154.455 132.556 154.418Z" fill="url(#paint0_linear)"/>
<path d="M148.46 144.608L148.538 145.363H179.583L179.505 144.608H148.46Z" fill="#B3C0EC"/>
<path d="M148.853 148.402L148.935 149.151H179.98L179.902 148.402H148.853Z" fill="#B3C0EC"/>
<path d="M149.25 152.191L149.327 152.945H180.377L180.294 152.191H149.25Z" fill="#B3C0EC"/>
<path d="M149.647 155.984L149.724 156.739H180.769L180.692 155.984H149.647Z" fill="#B3C0EC"/>
<path d="M150.044 159.778L150.122 160.528H181.166L181.089 159.778H150.044Z" fill="#B3C0EC"/>
<path d="M150.441 163.567L150.519 164.322H181.563L181.486 163.567H150.441Z" fill="#B3C0EC"/>
<path d="M76.1982 175.336L76.2756 176.091H107.32L107.243 175.336H76.1982Z" fill="#B3C0EC"/>
<path d="M76.5129 178.37L76.5903 179.125H107.64L107.558 178.37H76.5129Z" fill="#B3C0EC"/>
<path d="M76.8327 181.405L76.9101 182.159H107.955L107.877 181.405H76.8327Z" fill="#B3C0EC"/>
<path d="M77.1474 184.439L77.2248 185.188H108.27L108.192 184.439H77.1474Z" fill="#B3C0EC"/>
<path d="M77.4621 187.473L77.5447 188.222H108.589L108.512 187.473H77.4621Z" fill="#B3C0EC"/>
<path d="M133.593 175.336L133.671 176.091H148.197L148.12 175.336H133.593Z" fill="#B3C0EC"/>
<path d="M133.913 178.37L133.99 179.125H148.517L148.44 178.37H133.913Z" fill="#B3C0EC"/>
<path d="M134.228 181.405L134.305 182.159H148.832L148.754 181.405H134.228Z" fill="#B3C0EC"/>
<path d="M181.863 184.992L169.817 176.551L155.812 190.435H140.485L126.598 206.996H192.546L188.589 169.113L181.863 184.992Z" fill="#B3C0EC"/>
<path d="M182.838 194.311L177.921 189.442L163.302 197.449H147.387L126.598 206.995H192.546L190.266 185.157L182.838 194.311Z" fill="#E2E9FB"/>
<path d="M76.9772 200.55L80.2529 231.883H81.0009L77.7304 200.55H76.9772Z" fill="#B3C0EC"/>
<path d="M91.1119 200.55L94.3824 231.883H95.1356L91.8599 200.55H91.1119Z" fill="#B3C0EC"/>
<path d="M105.241 200.55L108.517 231.883H109.27L105.995 200.55H105.241Z" fill="#B3C0EC"/>
<path d="M119.376 200.55L122.652 231.883H123.4L120.124 200.55H119.376Z" fill="#B3C0EC"/>
<path d="M75.9713 201.904L76.0538 202.659H121.491L121.414 201.904H75.9713Z" fill="#B3C0EC"/>
<path d="M76.9463 211.224L77.0236 211.973H122.466L122.389 211.224H76.9463Z" fill="#B3C0EC"/>
<path d="M77.9212 220.538L77.9986 221.292H123.441L123.364 220.538H77.9212Z" fill="#B3C0EC"/>
<path d="M78.8962 229.857L78.9736 230.607H124.416L124.334 229.857H78.8962Z" fill="#B3C0EC"/>
<path d="M143.843 214.609C140.377 214.609 137.849 217.436 138.21 220.915C138.571 224.394 141.692 227.221 145.159 227.221C148.631 227.221 151.153 224.394 150.792 220.915C150.431 217.436 147.315 214.609 143.843 214.609ZM144.772 223.453C143.374 223.453 142.12 222.316 141.971 220.915C141.826 219.514 142.843 218.377 144.241 218.377C145.639 218.377 146.892 219.514 147.042 220.915C147.186 222.316 146.17 223.453 144.772 223.453Z" fill="#D3DDF8"/>
<path d="M161.682 214.609C158.215 214.609 155.688 217.436 156.049 220.915C156.41 224.394 159.531 227.221 162.997 227.221C166.469 227.221 168.992 224.394 168.631 220.915C168.27 217.436 165.149 214.609 161.682 214.609ZM162.605 223.453C161.207 223.453 159.954 222.316 159.804 220.915C159.66 219.514 160.676 218.377 162.074 218.377C163.472 218.377 164.726 219.514 164.875 220.915C165.02 222.316 164.003 223.453 162.605 223.453Z" fill="#E2E9FB"/>
<path d="M179.515 214.609C176.049 214.609 173.521 217.436 173.882 220.915C174.243 224.394 177.364 227.221 180.831 227.221C184.303 227.221 186.825 224.394 186.464 220.915C186.103 217.436 182.987 214.609 179.515 214.609ZM180.439 223.453C179.041 223.453 177.787 222.316 177.638 220.915C177.493 219.514 178.509 218.377 179.907 218.377C181.305 218.377 182.559 219.514 182.709 220.915C182.858 222.316 181.837 223.453 180.439 223.453Z" fill="url(#paint1_linear)"/>
<path d="M106.866 210.919C104.447 215.648 101.95 220.538 93.3662 220.538C81.3259 220.538 80.5057 230.483 80.4954 230.581L81.2434 230.632C81.2692 230.25 82.0378 221.287 93.361 221.287C102.404 221.287 105.128 215.958 107.527 211.26C109.688 207.027 111.731 203.031 117.999 203.031V202.276C111.277 202.282 109.033 206.67 106.866 210.919Z" fill="url(#paint2_linear)"/>
<path d="M108.94 219.178C106.335 221.887 103.647 224.683 94.3205 224.683C81.4033 224.683 80.5263 230.317 80.4954 230.56L81.2382 230.658C81.2434 230.607 82.1307 225.438 94.3154 225.438C103.962 225.438 106.768 222.523 109.477 219.7C111.803 217.276 114.006 214.986 120.836 214.986V214.232C113.691 214.237 111.385 216.635 108.94 219.178Z" fill="#D3DDF8"/>
<path d="M70.8591 243.358C70.8591 243.358 50.5082 250.207 53.2784 273.72C56.0486 297.233 52.061 325.878 52.061 325.878H63.6628C63.6628 325.878 84.3283 297.961 69.1 277.043C53.8665 256.125 70.8591 243.358 70.8591 243.358Z" fill="#02126A"/>
<path d="M69.2444 244.821C65.5405 247.886 54.7693 259.015 66.3762 277.441C80.1704 299.336 57.6839 325.801 57.6839 325.801L52.1126 325.423C52.0765 325.708 52.0507 325.873 52.0507 325.873H63.6524C63.6524 325.873 84.3179 297.956 69.0896 277.038C56.874 260.255 65.4012 248.723 69.2444 244.821Z" fill="#6F8FE4"/>
<g opacity="0.44">
<path opacity="0.44" d="M70.0388 244.056C70.5392 243.596 70.859 243.353 70.859 243.353C70.859 243.353 69.0277 243.973 66.5464 245.467C68.1869 244.676 69.4559 244.237 70.0388 244.056Z" fill="#4900BC"/>
</g>
<path d="M48.5841 299.874C49.6725 279.007 48.8317 276.402 40.7378 269.512C32.6439 262.622 21.2381 251.297 21.2381 251.297C29.007 266.711 28.8523 273.72 30.3122 285.06C31.4471 293.858 44.6325 311.416 50.4928 318.854C49.1979 315.835 48.0476 310.232 48.5841 299.874Z" fill="#1D3599"/>
<path d="M53.2732 322.307C53.2732 322.307 52.1899 320.999 50.4927 318.849C51.8082 321.909 53.2732 322.307 53.2732 322.307Z" fill="url(#paint3_linear)"/>
<path d="M44.648 290.172C40.6088 307.508 49.1979 319.154 49.1979 319.154H57.6684C57.6375 313.179 58.0656 307.451 60.8719 301.657C61.0215 301.352 61.1969 301.068 61.3878 300.794C60.191 300.236 58.8652 299.667 57.3847 299.099C41.7489 293.077 48.6872 272.836 44.648 290.172Z" fill="#02126A"/>
<path d="M66.6083 294.529C58.0089 298.887 60.4953 317.572 60.4953 317.572L68.5738 320.477C68.5738 320.477 67.1242 311.964 72.613 305.322C78.1018 298.68 81.7283 301.228 81.7283 301.228C81.7283 301.228 75.2078 290.172 66.6083 294.529Z" fill="#1D3599"/>
<path d="M25.3805 285.706C10.9415 285.706 2.8682 294.426 2.8682 294.426C2.8682 294.426 8.48596 291.568 18.5401 291.935C28.5943 292.307 27.8618 300.861 35.9454 308.852C44.029 316.848 50.761 317.991 50.761 317.991C50.761 317.991 40.0568 302.484 32.2157 291.94C30.8383 290.079 32.1847 285.706 25.3805 285.706Z" fill="#1D3599"/>
<path d="M0.0722209 297.403C0.0103173 297.558 0 297.641 0 297.641C0 297.641 0.0206346 297.558 0.0722209 297.403Z" fill="#FAF9FC"/>
<path d="M37.0855 295.052C34.3926 291.418 37.1886 282.491 19.9897 284.569C4.28167 286.466 0.593243 295.801 0.0670614 297.409C0.464277 296.375 2.97653 292.152 18.1223 288.72C35.5275 284.776 26.3039 293.806 34.1811 299.517C42.0532 305.224 48.4757 315.918 48.4757 315.918C48.4757 315.918 52.9328 323.392 51.8959 317.164C50.8642 310.93 39.7783 298.68 37.0855 295.052Z" fill="#6F8FE4"/>
<path d="M90.4361 302.836C82.564 286.745 73.0412 287.794 66.7115 291.314C57.7303 296.308 59.2057 317.159 59.2057 317.159L60.4953 317.572C60.4953 317.572 60.7017 313.525 61.3878 306.568C62.0739 299.61 65.4631 289.738 76.4459 303.456C87.4286 317.169 102.966 319.634 102.966 319.634C102.966 319.634 98.3082 318.921 90.4361 302.836Z" fill="#6F8FE4"/>
<path d="M69.621 282.806C67.1448 280.987 64.6377 281.297 62.6981 282.109C60.2477 283.132 57.4879 282.796 55.2284 281.426C46.9488 276.407 46.3142 283.308 46.3142 283.308L46.5361 285.174C46.5464 285.184 46.5464 285.21 46.5464 285.236C47.1448 288.699 49.0844 295.899 57.3847 299.099C58.8652 299.672 71.8908 305.327 71.8908 305.327C70.1265 298.163 74.6919 286.544 69.621 282.806Z" fill="#6F8FE4"/>
<path d="M47.8412 358.886H61.6612C66.7424 358.886 70.859 354.762 70.859 349.67V315.809H38.6433V349.67C38.6433 354.756 42.7599 358.886 47.8412 358.886Z" fill="#2647C8"/>
<path d="M74.0007 315.809H35.5017V320.482H74.0007V315.809Z" fill="url(#paint4_linear)"/>
<path d="M648.869 119.674H647.29V151.875H648.869V119.674Z" fill="#D3DDF8"/>
<path d="M633.801 114.985H631.273V358.886H633.801V114.985Z" fill="#D3DDF8"/>
<path d="M620.522 82.9854L600.073 121.638H665L644.551 82.9854H620.522Z" fill="#D3DDF8"/>
<path d="M648.08 148.97C646.481 148.97 645.181 150.268 645.181 151.875C645.181 153.478 646.475 154.78 648.08 154.78C649.684 154.78 650.979 153.478 650.979 151.875C650.979 150.268 649.679 148.97 648.08 148.97Z" fill="#D3DDF8"/>
<path d="M573.326 286.978H296.967V342.987H573.326V286.978Z" fill="#02126A"/>
<path d="M337.292 252.507V338.118C337.292 340.806 334.718 342.982 331.551 342.982H276.178C273.011 342.982 270.442 340.806 270.442 338.118V265.015C270.442 258.11 276.028 252.512 282.92 252.512H337.292V252.507Z" fill="#1D3599"/>
<path d="M457.478 191.272H354.662L342.425 297.946H445.242C452.511 297.946 458.407 292.948 458.407 286.786L470.107 206.122C471.18 198.72 465.83 191.727 458.376 191.298C458.082 191.277 457.783 191.272 457.478 191.272Z" fill="#2647C8"/>
<path d="M435.75 286.786C435.75 292.953 429.859 297.946 422.585 297.946H331.123C323.854 297.946 317.958 292.948 317.958 286.786L330.194 202.431C330.194 196.265 336.09 191.272 343.359 191.272H434.822C435.126 191.272 435.425 191.282 435.724 191.298C443.179 191.727 448.528 198.72 447.455 206.122L435.75 286.786Z" fill="#6F8FE4"/>
<path d="M298.468 326.338H429.498C432.691 326.338 435.281 324.493 435.281 322.208V290.048C435.281 288.513 432.603 286.75 429.498 285.918C382.018 279.462 302.745 285.918 302.745 285.918C300.522 286.466 299.263 287.045 298.355 287.965C297.421 288.906 296.962 290.198 296.962 291.5V324.881C296.967 324.881 296.813 326.338 298.468 326.338Z" fill="#2647C8"/>
<path d="M296.967 290.405H426.97C431.561 290.405 435.281 293.992 435.281 298.421V322.208C435.281 324.488 432.691 326.338 429.498 326.338H298.468C296.813 326.338 296.967 324.886 296.967 324.886V290.405Z" fill="#1D3599"/>
<path d="M279.624 358.886L286.279 343.044H294.93L285.211 358.886H279.624Z" fill="#02126A"/>
<path d="M332.16 358.886L338.814 343.044H347.46L337.741 358.886H332.16Z" fill="#151618"/>
<path d="M503.292 191.272C497.257 191.272 492.18 195.805 491.494 201.811L481.987 284.688C481.177 291.754 486.692 297.946 493.785 297.946H583.277C590.288 297.946 596.019 293.299 596.421 287.443C596.452 287.009 596.473 286.569 596.54 286.135L608.152 206.091C609.23 198.643 603.793 191.66 596.292 191.287C596.034 191.277 503.292 191.272 503.292 191.272Z" fill="#2647C8"/>
<path d="M573.79 286.786C573.79 292.953 567.899 297.946 560.625 297.946H469.163C461.889 297.946 455.993 292.948 455.993 286.786L468.229 202.431C468.229 196.265 474.125 191.272 481.399 191.272H572.862C573.166 191.272 573.465 191.282 573.764 191.298C581.219 191.727 586.568 198.72 585.495 206.117L573.79 286.786Z" fill="#6F8FE4"/>
<path d="M413.258 227.717C406.784 230.751 405.443 227.629 383.478 228.596C370.354 229.175 363.08 226.957 359.366 225.102C357.881 224.357 356.101 225.355 356.106 226.952C356.111 230.415 355.967 236.101 355.291 244.19C352.557 277.028 341.301 277.214 347.491 280.144C353.692 283.08 423.947 288.895 415.59 281.804C407.259 274.733 416.906 248.351 419.227 237.993C421.151 229.397 418.83 225.102 413.258 227.717Z" fill="#2647C8"/>
<path d="M377.468 231.522C354.646 233.61 331.721 232.054 322.683 231.263C320.547 231.077 318.742 232.643 318.685 234.685C318.324 248.165 312.954 267.61 310.529 275.761C309.921 277.813 311.355 279.958 313.573 280.336C340.805 284.962 361.765 284.3 369.823 283.768C371.778 283.639 373.274 282.124 373.248 280.258C373.057 266.029 378.69 245.648 381.584 236.148C382.332 233.692 380.171 231.273 377.468 231.522Z" fill="url(#paint5_linear)"/>
<path d="M498.288 163.453C498.288 171.775 508.735 173.713 508.735 173.713C508.735 167.542 515.116 163.205 516.364 155.524C517.659 147.564 515.013 138.726 504.324 140.457C497.762 141.517 498.288 155.132 498.288 163.453Z" fill="#1D3599"/>
<path d="M489.147 205.652C485.794 213.208 466.135 235.589 460.46 238.665C453.852 242.247 448.131 239.233 449.689 231.516C451.355 223.246 471.567 198.715 475.193 195.862C481.745 190.714 493.341 196.198 489.147 205.652Z" fill="#FBBCBE"/>
<path d="M461.641 229.004C454.027 221.954 427.347 210.448 424.386 204.788C421.419 199.129 421.151 192.394 416.225 192.967C411.195 193.557 408.698 197.04 406.547 201.175C405.134 203.899 409.828 206.69 416.189 209.864C422.56 213.043 441.399 232.39 449.978 238.308C458.474 244.175 466.79 233.775 461.641 229.004Z" fill="#FBBCBE"/>
<path d="M459.511 240.164C469.255 235.894 491.077 205.543 492.779 201.713C496.973 192.259 485.247 185.721 478.696 190.869C476.653 192.476 457.612 210.386 453.558 223.36C452.335 227.262 452.242 243.348 459.511 240.164Z" fill="#0C1540"/>
<path d="M510.685 185.054C516.514 185.054 527.321 186.3 531.144 191.375C534.966 196.451 542.998 245.772 538.923 278.852C538.923 278.852 489.364 272.257 469.735 252.843C469.735 252.843 471.107 201.987 476.777 192.936C481.502 185.39 504.855 185.054 510.685 185.054Z" fill="#02126A"/>
<path d="M515.353 217.023C509.854 230.643 469.735 252.843 469.735 252.843C489.364 272.257 538.923 278.852 538.923 278.852C543.003 245.772 521.229 202.473 515.353 217.023Z" fill="#0C1540"/>
<path d="M509.209 260.343C516.519 264.162 509.895 283.21 498.041 284.497C478.701 286.595 455.038 283.106 425.546 278.377C413.774 276.49 404.53 264.318 414.693 256.668C424.855 249.018 488.729 249.638 509.209 260.343Z" fill="#0C1540"/>
<path d="M537.871 267.047C544.83 271.476 536.612 289.888 524.69 290.162C505.242 290.606 481.435 286.972 452.975 277.891C447.202 276.051 433.228 262.09 443.999 255.334C454.77 248.578 518.366 254.636 537.871 267.047Z" fill="#02126A"/>
<path d="M463.932 270.541C477.416 267.362 540.047 277.896 540.017 269.91C542.245 276.635 534.801 289.929 524.685 290.157C505.237 290.601 481.43 286.967 452.97 277.886C448.538 276.475 459.82 271.513 463.932 270.541Z" fill="#0C1540"/>
<path d="M511.886 185.054C511.886 185.054 495.446 215.56 493.403 218.15C493.403 218.15 491.051 194.094 490.556 186.853L511.886 185.054Z" fill="url(#paint6_linear)"/>
<path d="M506.687 173.713C506.785 172.623 506.893 171.91 506.893 171.91C506.893 171.91 494.347 164.296 494.022 173.713H506.687Z" fill="url(#paint7_linear)"/>
<path d="M496.772 192.936L492.469 186.796C492.469 186.796 495.724 183.927 494.435 177.683C491.288 162.435 506.898 171.915 506.898 171.915C506.898 171.915 505.975 185.059 510.69 185.059L496.772 192.936Z" fill="#FBBCBE"/>
<path d="M496.462 189.907C504.566 189.907 502.88 179.957 503.024 178.035C503.158 176.22 506.893 171.915 506.893 171.915C506.893 171.915 505.97 185.059 510.685 185.059L496.767 192.941L494.223 189.308C494.837 189.68 495.58 189.907 496.462 189.907Z" fill="#DA91A7"/>
<path d="M486.403 152.516L484.804 170.814C484.804 176.21 491.004 180.583 496.679 180.583C502.353 180.583 506.955 176.21 506.955 170.814V170.364C506.955 170.364 512.836 169.951 512.836 163.96C512.836 157.974 508.915 160.414 508.915 160.414V157.856C508.915 154.904 506.527 152.511 503.581 152.511H486.403V152.516Z" fill="#FBBCBE"/>
<path d="M508.915 160.419V157.623C508.915 154.806 506.635 152.516 503.818 152.516H500.919C500.919 152.573 500.929 152.63 500.929 152.692V173.403C500.929 177.021 497.437 179.844 493.929 179.72C492.841 179.683 490.638 179.027 489.761 178.526C492.361 180.112 494.61 180.588 496.684 180.588C502.358 180.588 506.96 176.215 506.96 170.819V170.369C506.96 170.369 512.841 169.956 512.841 163.965C512.836 157.98 508.915 160.419 508.915 160.419Z" fill="#DA91A7"/>
<path d="M527.77 234.483C517.453 233.486 487.625 240.355 481.812 237.724C477.86 235.936 478.051 234.845 474.559 234.664C471.969 234.53 478.82 239.264 477.726 239.492C471.665 240.758 466.475 244.056 463.952 246.49C462.1 248.279 463.354 248.889 464.86 247.881C471.443 243.456 472.284 250.367 475.575 250.367C480.171 250.367 480.935 248.222 483.932 247.447C490.824 245.663 521.028 250.01 531.443 250.01C540.326 250.015 534.755 235.16 527.77 234.483Z" fill="#FBBCBE"/>
<path d="M531.685 250.439C531.758 243.172 526.759 237.295 520.403 234.726C520.326 234.121 520.264 233.506 520.218 232.876C519.428 221.494 514.172 201.853 514.172 199.769C514.172 191.923 526.97 181.358 535.064 196.239C542.431 209.776 545.928 239.337 540.414 248.889C538.345 252.471 534.976 253.432 531.572 252.243C531.644 251.644 531.68 251.044 531.685 250.439Z" fill="#02126A"/>
<path d="M508.131 183.059C506.062 187.39 496.766 192.941 496.766 192.941C496.766 192.941 499.645 191.928 502.978 195.407C504.391 196.88 506.356 197.216 506.356 197.216C506.356 197.216 511.886 191.706 511.886 185.059L508.131 183.059Z" fill="white"/>
<path d="M493.223 185.881C495.399 189.861 496.772 192.931 496.772 192.931C496.772 192.931 494.244 191.809 492.072 194.813C491.154 196.089 490.153 196.239 490.153 196.239C490.153 196.239 490.04 193.164 490.04 186.801L493.223 185.881Z" fill="white"/>
<path d="M501.296 150.717C501.296 150.717 497.447 155.778 490.034 155.049C482.621 154.32 481.987 158.228 481.987 158.228C481.987 158.228 478.495 144.696 487.945 139.878C497.401 135.066 506.3 140.24 506.3 140.24L501.296 150.717Z" fill="#1D3599"/>
<path d="M456.06 252.905C456.06 253.086 456.204 253.231 456.385 253.231H512.846C513.207 253.231 513.501 252.936 513.501 252.574V250.992H456.06V252.905Z" fill="#BDC6ED"/>
<path d="M506.124 250.336V251.003H508.141V250.119H506.346C506.222 250.114 506.124 250.212 506.124 250.336Z" fill="#BDC6ED"/>
<path d="M503.787 250.336V251.003H505.805V250.119H504.009C503.885 250.114 503.787 250.212 503.787 250.336Z" fill="#BDC6ED"/>
<path d="M501.451 250.336V251.003H503.468V250.119H501.672C501.549 250.114 501.451 250.212 501.451 250.336Z" fill="#BDC6ED"/>
<path d="M491.706 250.336V251.003H493.723V250.119H491.928C491.804 250.114 491.706 250.212 491.706 250.336Z" fill="#BDC6ED"/>
<path d="M489.364 250.336V251.003H491.381V250.119H489.586C489.467 250.114 489.364 250.212 489.364 250.336Z" fill="#BDC6ED"/>
<path d="M461.915 250.336V251.003H463.932V250.119H462.137C462.018 250.114 461.915 250.212 461.915 250.336Z" fill="#BDC6ED"/>
<path d="M459.578 250.336V251.003H461.595V250.119H459.8C459.676 250.114 459.578 250.212 459.578 250.336Z" fill="#BDC6ED"/>
<path d="M494.115 250.336V251.003H501.043V250.119H494.332C494.213 250.114 494.115 250.212 494.115 250.336Z" fill="#BDC6ED"/>
<path d="M451.99 250.336V251.003H458.918V250.119H452.206C452.088 250.114 451.99 250.212 451.99 250.336Z" fill="#BDC6ED"/>
<path d="M464.473 250.336V251.003H488.538V250.119H464.695C464.571 250.114 464.473 250.212 464.473 250.336Z" fill="#BDC6ED"/>
<path d="M444.551 250.114H439.666C439.392 250.114 439.165 250.336 439.165 250.615V250.998H444.767V250.331C444.767 250.212 444.669 250.114 444.551 250.114Z" fill="url(#paint8_linear)"/>
<path d="M437.798 250.114H432.913C432.639 250.114 432.412 250.336 432.412 250.615V250.998H438.015V250.331C438.02 250.212 437.922 250.114 437.798 250.114Z" fill="url(#paint9_linear)"/>
<path d="M431.051 250.114H426.165C425.892 250.114 425.665 250.336 425.665 250.615V250.998H431.267V250.331C431.272 250.212 431.174 250.114 431.051 250.114Z" fill="url(#paint10_linear)"/>
<path d="M424.303 250.114H419.418C419.139 250.114 418.918 250.336 418.918 250.615V250.998H424.52V250.331C424.52 250.212 424.422 250.114 424.303 250.114Z" fill="url(#paint11_linear)"/>
<path d="M416.354 250.114H413.795C413.522 250.114 413.295 250.336 413.295 250.615V250.998H416.57V250.331C416.576 250.212 416.477 250.114 416.354 250.114Z" fill="url(#paint12_linear)"/>
<path d="M412.376 250.114H409.823C409.544 250.114 409.322 250.336 409.322 250.615V250.998H412.598V250.331C412.593 250.212 412.495 250.114 412.376 250.114Z" fill="url(#paint13_linear)"/>
<path d="M408.631 250.114H406.078C405.799 250.114 405.577 250.336 405.577 250.615V250.998H408.853V250.331C408.848 250.212 408.75 250.114 408.631 250.114Z" fill="url(#paint14_linear)"/>
<path d="M452.48 208.443C451.984 206.649 450.664 205.579 448.595 205.579L461.43 252.972C461.43 252.972 463.916 252.259 463.297 249.84C462.781 247.819 455.157 218.129 452.48 208.443Z" fill="#BDC6ED"/>
<path d="M448.353 205.579H388.219C387.378 205.579 386.759 206.37 386.97 207.187L398.041 250.998H461.254L450.127 206.959C449.916 206.148 449.188 205.579 448.353 205.579Z" fill="white"/>
<path d="M398.267 252.905C398.267 253.086 398.412 253.231 398.592 253.231H460.641C461.002 253.231 461.296 252.936 461.296 252.574V250.992H398.267V252.905Z" fill="#D3DDF8"/>
<path d="M413.578 247.617H397.153L395.993 242.919H413.006C413.578 242.919 414.079 243.306 414.223 243.859L414.796 246.041C415.002 246.837 414.399 247.617 413.578 247.617Z" fill="#B3C0EC"/>
<path d="M556.246 358.886L546.527 343.044H555.178L561.827 358.886H556.246Z" fill="#02126A"/>
<path d="M600.729 358.886L591.01 343.044H599.656L606.31 358.886H600.729Z" fill="#151618"/>
<path d="M434.775 326.338H302.822C299.588 326.338 296.962 323.712 296.962 320.466V265.015C296.962 258.11 291.375 252.512 284.483 252.512H282.92C276.028 252.512 270.442 258.11 270.442 265.015V338.123C270.442 340.811 273.011 342.987 276.178 342.987H434.775V326.338Z" fill="#2647C8"/>
<path d="M439.609 326.338H567.538C570.731 326.338 573.321 324.493 573.321 322.208V290.048C573.321 288.513 570.638 286.75 567.538 285.918C520.058 279.462 440.785 285.918 440.785 285.918C437.231 286.797 436.147 287.753 435.002 290.048V322.208C435.002 322.208 437.953 326.338 439.609 326.338Z" fill="#2647C8"/>
<path d="M443.277 290.405H573.321V322.208C573.321 324.488 570.726 326.338 567.538 326.338H439.609C439.573 326.338 439.537 326.338 439.5 326.338C436.983 326.297 435.002 324.234 435.002 321.805V298.385C435.002 293.976 438.706 290.405 443.277 290.405Z" fill="#1D3599"/>
<path d="M602.101 252.507C608.477 252.507 613.646 257.686 613.646 264.075V338.118C613.646 340.806 611.077 342.982 607.909 342.982H552.531C549.364 342.982 546.795 340.806 546.795 338.118V264.08C546.795 257.691 551.964 252.512 558.34 252.512H602.101V252.507Z" fill="#1D3599"/>
<path d="M561.667 252.507H558.448C552.01 252.507 546.795 257.738 546.795 264.183V320.466C546.795 323.707 544.174 326.338 540.94 326.338H423.54V342.987H565.093C569.637 342.987 573.321 339.296 573.321 334.743V264.188C573.321 257.738 568.105 252.507 561.667 252.507Z" fill="#2647C8"/>
<path d="M427.467 349.179C433.957 346.92 435.525 336.986 436.185 331.094L445.662 334.515C445.662 334.515 441.917 344.589 443.407 351.453C444.893 358.318 442.845 357.672 442.845 357.672H413.167C413.167 357.672 420.978 351.438 427.467 349.179Z" fill="#FBBCBE"/>
<path d="M427.465 349.179C429.441 348.549 430.932 347.013 432.103 345.122C432.846 343.783 434.135 346.295 435.312 348.885C435.312 348.885 440.434 350.926 443.168 350.063C443.24 350.539 443.297 351.009 443.395 351.459C444.881 358.323 442.833 357.677 442.833 357.677H413.155C414.626 352.048 421.208 351.169 427.465 349.179Z" fill="white"/>
<path d="M443.932 355.878C443.823 357.982 442.838 357.672 442.838 357.672H413.16C413.16 357.672 413.269 356.927 413.877 355.878H443.932Z" fill="#0C1540"/>
<path d="M441.012 257.412C432.454 264.411 435.884 310.77 431.572 344.248C431.572 344.248 441.476 346.466 447.45 343.866C447.45 343.866 466.057 284.765 463.731 271.254C460.61 253.132 450.194 249.907 441.012 257.412Z" fill="#02126A"/>
<path d="M462.885 267.367C463.204 268.582 463.493 269.869 463.731 271.259C466.057 284.771 447.45 343.871 447.45 343.871C446.666 344.212 445.815 344.465 444.932 344.656C449.028 337.162 462.854 268.148 462.885 267.367Z" fill="#0C1540"/>
<path d="M425.511 344.46C430.695 339.948 428.472 330.142 426.898 324.426L436.968 324.079C436.968 324.079 437.231 334.825 441.157 340.645C445.083 346.46 442.942 346.626 442.942 346.626L415.39 357.671C415.379 357.671 420.321 348.978 425.511 344.46Z" fill="#FBBCBE"/>
<path d="M425.51 344.46C427.109 343.142 427.925 341.162 428.311 338.966C428.507 337.446 430.633 339.301 432.686 341.266C432.686 341.266 438.201 341.255 440.419 339.436C440.661 339.849 440.893 340.268 441.146 340.645C445.072 346.46 442.931 346.626 442.931 346.626L415.379 357.671C414.651 351.908 420.439 348.642 425.51 344.46Z" fill="white"/>
<path d="M443.282 344.548C443.963 346.543 442.931 346.621 442.931 346.621L415.379 357.666C415.379 357.666 415.203 356.932 415.379 355.733L443.282 344.548Z" fill="#0C1540"/>
<path d="M409.998 260.989C404.85 267.367 419.789 306.655 425.036 336.443C425.036 336.443 435.41 337.064 440.414 333.254C440.414 333.254 441.708 277.741 435.683 266.799C427.61 252.119 416.978 252.341 409.998 260.989Z" fill="#02126A"/>
<path d="M433.785 263.697C434.435 264.648 435.069 265.677 435.688 266.799C441.708 277.741 440.419 333.254 440.419 333.254C439.764 333.75 439.021 334.2 438.221 334.598C433.8 309.803 433.97 264.374 433.785 263.697Z" fill="#0C1540"/>
<path d="M303.581 186.677C303.591 181.984 292.108 153.54 288.234 148.335C283.462 141.931 273.428 150.004 273.826 156.264C274.047 159.732 289.529 188.331 292.804 191.282C296.647 194.745 303.57 192.724 303.581 186.677Z" fill="#0C1540"/>
<path d="M305.175 222.011C307.728 226.363 311.994 229.268 309.761 232.473C307.821 235.253 305.216 235.91 302.332 235.941C301.827 235.946 299.572 235.414 299.237 234.633C298.505 232.912 298.556 229.609 298.788 225.681C299.129 219.954 292.572 200.586 291.969 192.218C291.37 183.922 301.259 178.748 302.41 184.268C304.117 192.414 302.621 217.659 305.175 222.011Z" fill="#FBBCBE"/>
<path d="M305.881 232.199C306.686 231.852 307.455 231.496 308.347 231.496C308.77 231.496 309.08 231.62 309.425 231.728C309.508 231.728 309.854 231.77 310.137 231.811C311.412 228.86 307.558 226.063 305.18 222.011C304.097 220.171 303.833 214.423 303.751 207.792C303.245 209.29 302.874 218.894 304.437 222.652C305.68 225.634 299.082 227.557 299.041 230.488C298.948 236.685 303.968 233.026 305.881 232.199Z" fill="#DA91A7"/>
<path d="M296.518 219.783C297.767 219.137 301.414 216.744 305.722 216.506C304.984 207.13 304.932 189.587 302.905 183.395C301.151 178.04 289.75 181.953 290.349 190.243C290.808 196.606 294.961 210.303 296.518 219.783Z" fill="#0C1540"/>
<path d="M301.502 235.212C300.161 233.868 300.413 231.165 300.687 230.415C301.316 228.679 303.885 228.11 305.268 227.805C308.992 226.973 309.503 232.064 309.503 232.064C309.503 232.064 302.843 236.556 301.502 235.212Z" fill="#FBBCBE"/>
<path d="M273.996 157.049C276.771 154.837 286.923 151.498 294.192 160.125C291.824 154.713 289.575 150.133 288.234 148.335C283.462 141.931 273.428 150.004 273.826 156.264C273.841 156.455 273.898 156.718 273.996 157.049Z" fill="#02126A"/>
<path d="M210.22 351.676C216.694 349.484 219.144 338.831 220.279 333.125L227.393 335.802C227.393 335.802 224.69 346.202 225.551 352.849C226.413 359.496 224.483 358.871 224.483 358.871H201.93C201.93 358.871 203.74 353.862 210.22 351.676Z" fill="#FBBCBE"/>
<path d="M210.22 351.676C212.175 351.014 213.758 349.583 215.053 347.748C215.889 346.455 220.475 347.882 221.398 350.389C221.398 350.389 223.292 351.707 225.427 351.505C225.453 351.965 225.494 352.415 225.551 352.849C226.413 359.496 224.483 358.871 224.483 358.871H201.93C201.93 358.871 203.74 353.862 210.22 351.676Z" fill="#0C1540"/>
<path d="M304.308 352.193C292.474 352.193 290.89 345.375 291.948 338.113H284.035C284.133 341.348 284.086 346.429 283.194 350.952C281.868 357.703 285.221 358.871 285.221 358.871H314.022C314.027 358.871 309.859 352.193 304.308 352.193Z" fill="#FBBCBE"/>
<path d="M292.887 352.663C293.996 350.978 290.648 347.779 293.145 347.634C294.842 350.378 298.216 352.193 304.313 352.193C309.864 352.193 314.032 358.871 314.032 358.871H285.221C285.221 358.871 282.074 357.775 283.085 351.567C286.103 351.567 291.215 355.201 292.887 352.663Z" fill="#0C1540"/>
<path d="M291.298 265.413C290.498 253.272 275.322 270.169 275.43 273.41C275.569 277.477 275.667 279.364 275.311 293.614C274.955 307.865 277.54 315.024 279.877 321.64C282.208 328.256 282.069 343.044 282.069 343.044C290.323 343.835 293.924 341.638 293.924 341.638C293.924 341.638 292.515 320.11 293.052 307.824C293.594 295.532 291.484 268.261 291.298 265.413Z" fill="#02126A"/>
<path d="M284.772 343.199C284.705 338.444 284.349 328.225 282.595 322.927C280.264 315.871 281.115 301.709 281.471 286.512C281.827 271.316 278.288 275.834 278.154 271.502C278.112 270.133 280.475 266.468 283.39 263.356C279.387 266.437 275.378 271.735 275.435 273.404C275.574 277.472 275.672 279.359 275.316 293.609C274.961 307.86 277.545 315.018 279.882 321.635C282.214 328.251 282.074 343.039 282.074 343.039C283.034 343.132 283.931 343.183 284.772 343.199Z" fill="#0C1540"/>
<path d="M292.99 209.947C290.813 199.894 284.865 193.174 282.864 191.468C279.578 188.672 270.411 188.946 266.702 196.58C262.993 204.215 261.62 208.836 262.657 222.585C263.694 236.339 276.08 268.897 276.101 279.214C276.126 289.526 292.515 290.219 291.375 275.446C290.23 260.679 295.502 221.572 292.99 209.947Z" fill="#02126A"/>
<path d="M281.466 286.518C280.687 284.776 270.354 241.58 270.127 239.492C269.601 234.685 284.602 235.005 293.48 227.707C293.8 220.119 293.784 213.648 292.985 209.952C290.808 199.899 284.86 193.179 282.858 191.474C279.572 188.677 270.405 188.951 266.696 196.586C262.987 204.22 261.615 208.841 262.652 222.59C263.689 236.344 276.095 268.902 276.095 279.219C276.095 285.675 281.626 286.869 281.466 286.518Z" fill="#0C1540"/>
<path d="M231.602 277.684C232.562 274.914 233.078 272.872 233.81 270.019C236.936 257.877 249.136 270.169 248.404 273.404C247.486 277.472 245.995 279.359 243.617 293.609C241.239 307.86 237.282 315.019 233.681 321.635C230.08 328.251 227.393 340.883 227.393 340.883C220.46 341.297 217.638 337.849 217.638 337.849C217.638 337.849 221.337 320.105 223.152 307.818C224.968 295.532 229.358 284.161 231.602 277.684Z" fill="#02126A"/>
<path d="M227.971 310.987C229.786 298.701 232.092 291.506 234.336 285.029C235.296 282.259 237.891 276.041 238.623 273.187C239.902 268.22 242.704 267.341 245.515 268.261C241.873 264.628 235.874 262.018 233.81 270.019C233.078 272.872 232.562 274.914 231.602 277.684C229.358 284.161 224.973 295.532 223.158 307.818C221.342 320.105 217.643 337.849 217.643 337.849C217.643 337.849 219.129 339.648 222.564 340.491C223.183 337.482 226.335 322.033 227.971 310.987Z" fill="#0C1540"/>
<path d="M241.981 209.947C246.083 199.893 253.32 193.174 255.652 191.468C259.474 188.672 268.59 188.946 270.834 196.58C273.078 204.215 273.563 208.836 269.895 222.585C266.222 236.339 248.626 268.897 246.624 279.214C244.623 289.526 228.786 289.634 232.758 274.862C236.73 260.095 237.241 221.572 241.981 209.947Z" fill="#02126A"/>
<path d="M242.234 237.078C242.332 233.181 245.2 230.048 248.822 229.009C250.555 228.513 257.994 229.909 262.766 230.777C265.082 231.201 267.357 229.883 268.151 227.666C268.909 225.546 269.719 223.257 269.895 222.59C273.568 208.836 273.083 204.22 270.834 196.585C268.59 188.946 259.474 188.672 255.652 191.474C253.325 193.179 246.082 199.899 241.981 209.952C237.235 221.577 236.73 260.1 232.758 274.867C231.391 279.958 232.376 283.282 234.331 285.029C234.326 284.827 242.121 241.58 242.234 237.078Z" fill="#0C1540"/>
<path d="M259.753 104.984C263.802 104.984 267.083 108.276 267.083 112.334C267.083 116.391 263.797 119.679 259.748 119.679C255.698 119.679 252.417 116.386 252.417 112.329C252.417 108.276 255.698 104.984 259.753 104.984Z" fill="#0C1540"/>
<path d="M258.943 133.562C257.483 126.522 251.035 127.21 254.935 118.454C258.84 109.698 262.884 111.393 267.099 110.039C277.793 106.602 286.351 120.914 282.399 130.482C278.742 139.336 260.506 141.103 258.943 133.562Z" fill="#0C1540"/>
<path d="M259.082 175.161C258.726 172.054 257.612 169.196 254.785 158.502C253.681 154.33 251.999 151.942 253.041 150.077C254.362 147.72 258.897 146.469 261.863 146.469C267.217 146.469 264.638 133.531 264.638 133.531C265.458 130.833 274.357 131.303 273.944 139.935C273.532 148.567 282.028 144.68 284.05 146.283C286.825 148.479 286.609 153.173 287.166 155.716C287.723 158.259 291.494 161.277 290.983 165.96C290.473 170.643 286.052 170.483 286.052 170.483C284.473 172.302 283.003 175.61 282.853 177.947C282.502 183.39 285.19 188.812 285.19 188.812C269.482 195.717 256.116 189.654 256.116 189.654C256.116 189.654 260.155 184.465 259.082 175.161Z" fill="#FBBCBE"/>
<path d="M261.868 146.469C267.223 146.469 264.643 133.531 264.643 133.531C265.097 132.032 268.043 131.515 270.503 132.823C268.842 133.252 264.881 140.576 267.264 151.286C267.94 154.325 271.221 156.124 274.233 156.718C274.233 156.718 255.203 160.068 254.79 158.496C253.686 154.33 258.902 146.469 261.868 146.469Z" fill="#DA91A7"/>
<path d="M246.418 161.184C245.897 156.899 249.745 151.508 252.433 148.738C254.125 146.991 259.026 146.557 261.863 146.469C266.444 152.211 273.33 153.617 273.33 153.617C273.33 153.617 278.608 148.36 279.258 145.771C280.537 145.74 283.472 145.719 284.05 146.179C286.825 148.376 287.13 152.837 287.682 155.375C288.239 157.918 291.84 161.51 291.324 166.198C290.813 170.881 286.712 173.243 286.712 173.243C286.712 189.84 295.033 208.805 295.033 224.771C290.818 226.621 284.752 227.417 278.128 227.593L273.666 220.889L268.259 227.459C253.036 228.048 237.844 223.923 237.844 223.923C240.387 206.034 250.23 192.528 246.418 161.184Z" fill="#02126A"/>
<path d="M286.722 173.243C286.722 173.243 286.758 173.217 286.805 173.181C284.231 174.039 281.595 174.696 278.891 175.026C276.343 175.342 269.529 175.533 269.069 175.595C267.8 175.76 266.536 175.926 265.267 176.06C260.465 176.562 256.338 174.644 254.924 169.687C253.764 165.619 256.771 164.017 260.026 162.094C263.508 160.037 265.737 158.357 265.618 158.305C261.827 156.708 248.228 160.9 246.418 161.205C250.22 192.528 240.382 206.034 237.849 223.923C237.849 223.923 253.042 228.048 268.265 227.459L273.671 220.889L278.133 227.593C280.062 227.542 281.94 227.438 283.741 227.268C282.962 225.562 267.403 213.477 266.444 212.738C265.082 211.684 252.041 220.801 248.744 217.545C245.427 214.273 255.172 187.328 257.303 184.408C260.14 180.526 286.722 173.657 286.722 173.243Z" fill="#0C1540"/>
<path d="M215.394 161.138C219.227 158.44 251.236 147.285 257.7 146.836C259.897 146.681 259.464 160.626 254.12 163.888C251.159 165.697 219.129 174.566 214.837 173.574C209.797 172.411 210.457 164.616 215.394 161.138Z" fill="#02126A"/>
<path d="M211.489 170.013C211.845 171.749 212.933 173.135 214.831 173.574C219.123 174.566 251.153 165.691 254.115 163.888C255.791 162.864 256.988 160.786 257.767 158.419C230.524 167.361 212.866 174.623 211.489 170.013Z" fill="#0C1540"/>
<path d="M264.236 126.377C264.236 126.377 267.61 115.352 271.19 114.882C274.77 114.412 277.638 114.593 279.572 118.464C279.572 118.464 281.796 121.865 281.208 126.088C281.208 126.088 286.145 130.135 281.306 136.586C276.467 143.037 267.708 139.15 264.643 133.531C264.643 133.531 259.903 135.289 259.082 130.833C258.262 126.377 261.192 126.026 264.236 126.377Z" fill="#FBBCBE"/>
<path d="M264.236 126.378C264.236 126.378 267.61 115.352 271.19 114.882C274.058 114.51 276.462 114.551 278.303 116.567C275.874 116.055 267.78 125.99 267.971 131.701C268.161 137.511 274.486 140.824 279.366 138.1C279.949 137.775 280.501 137.387 281.017 136.953C276.126 142.887 267.651 139.046 264.643 133.541C264.643 133.541 259.903 135.299 259.082 130.843C258.262 126.378 261.192 126.026 264.236 126.378Z" fill="#DA91A7"/>
<path d="M208.631 126.284C206.077 121.932 201.811 119.027 204.045 115.823C205.984 113.042 208.59 112.386 211.473 112.355C211.979 112.349 210.313 103.759 211.649 103.785C213.49 103.821 214.233 112.877 214.568 113.662C215.301 115.383 215.249 118.686 215.017 122.615C214.677 128.342 221.46 152.878 222.064 161.246C222.662 169.542 212.773 174.716 211.623 169.196C209.915 161.05 211.184 130.637 208.631 126.284Z" fill="#FBBCBE"/>
<path d="M207.924 116.097C207.119 116.443 206.351 116.8 205.458 116.8C205.035 116.8 204.721 116.676 204.38 116.567C204.298 116.567 203.952 116.526 203.668 116.484C202.394 119.436 206.248 122.232 208.626 126.285C209.709 128.125 209.972 133.872 210.055 140.504C210.56 139.005 210.932 129.401 209.368 125.644C208.125 122.661 214.723 120.738 214.764 117.808C214.857 111.61 209.838 115.27 207.924 116.097Z" fill="#DA91A7"/>
<path d="M283.488 120.289C283.488 120.289 277.793 119.663 274.434 116.608C271.081 113.559 269.441 114.184 269.441 114.184C278.964 109.496 283.488 120.289 283.488 120.289Z" fill="#0C1540"/>
<path d="M217.287 128.512C216.039 129.158 212.391 131.551 208.084 131.789C208.822 141.165 209.1 163.872 211.128 170.069C212.882 175.424 224.282 171.512 223.684 163.221C223.225 156.853 218.845 137.992 217.287 128.512Z" fill="#02126A"/>
<path d="M271.437 114.257C273.036 115.44 273.542 119.224 269.797 123.679C266.052 128.135 267.568 133.298 264.293 130.6C261.017 127.902 260.955 127.432 260.491 123.56C260.021 119.689 267.924 111.657 271.437 114.257Z" fill="#0C1540"/>
<path d="M212.309 113.083C213.65 114.427 213.397 117.13 213.124 117.88C212.495 119.617 209.926 120.185 208.543 120.49C204.819 121.322 204.308 116.231 204.308 116.231C204.308 116.231 210.962 111.734 212.309 113.083Z" fill="#FBBCBE"/>
<path d="M273.655 158.424C274.277 158.424 274.78 157.92 274.78 157.297C274.78 156.675 274.277 156.171 273.655 156.171C273.034 156.171 272.531 156.675 272.531 157.297C272.531 157.92 273.034 158.424 273.655 158.424Z" fill="#6F8FE4"/>
<path d="M276.534 164.89C276.534 165.511 277.039 166.017 277.659 166.017C278.278 166.017 278.783 165.516 278.783 164.89C278.783 164.27 278.283 163.764 277.659 163.764C277.039 163.764 276.534 164.27 276.534 164.89Z" fill="#6F8FE4"/>
<path d="M274.986 173.931C274.986 174.551 275.492 175.057 276.111 175.057C276.73 175.057 277.236 174.556 277.236 173.931C277.236 173.31 276.735 172.804 276.111 172.804C275.492 172.804 274.986 173.31 274.986 173.931Z" fill="#6F8FE4"/>
<path d="M274.563 184.816C274.563 185.436 275.064 185.943 275.688 185.943C276.307 185.943 276.812 185.436 276.812 184.816C276.812 184.196 276.307 183.689 275.688 183.689C275.069 183.694 274.563 184.196 274.563 184.816Z" fill="#6F8FE4"/>
<path d="M273.867 195.945C273.867 196.565 274.372 197.071 274.992 197.071C275.611 197.071 276.116 196.57 276.116 195.945C276.116 195.324 275.611 194.818 274.992 194.818C274.367 194.823 273.867 195.324 273.867 195.945Z" fill="#6F8FE4"/>
<path d="M273.165 207.078C273.165 207.698 273.666 208.205 274.29 208.205C274.909 208.205 275.415 207.704 275.415 207.078C275.415 206.458 274.909 205.951 274.29 205.951C273.671 205.951 273.165 206.453 273.165 207.078Z" fill="#6F8FE4"/>
</g>
<defs>
<linearGradient id="paint0_linear" x1="109.112" y1="154.532" x2="132.638" y2="154.532" gradientUnits="userSpaceOnUse">
<stop offset="1.09e-06" stop-color="#AF3D5E"/>
<stop offset="1" stop-color="#FF7300"/>
</linearGradient>
<linearGradient id="paint1_linear" x1="186.529" y1="220.915" x2="173.839" y2="220.473" gradientUnits="userSpaceOnUse">
<stop offset="1.09e-06" stop-color="#FFD000"/>
<stop offset="1" stop-color="#FF7300"/>
</linearGradient>
<linearGradient id="paint2_linear" x1="117.537" y1="216.458" x2="81.0315" y2="215.186" gradientUnits="userSpaceOnUse">
<stop offset="1.09e-06" stop-color="#FFD000"/>
<stop offset="1" stop-color="#FF7300"/>
</linearGradient>
<linearGradient id="paint3_linear" x1="52.317" y1="321.405" x2="51.2274" y2="319.599" gradientUnits="userSpaceOnUse">
<stop stop-color="#DBEBFF"/>
<stop offset="0.5274" stop-color="#DDECFF"/>
<stop offset="0.7367" stop-color="#E4F0FF"/>
<stop offset="0.8889" stop-color="#F0F7FF"/>
<stop offset="1" stop-color="white"/>
</linearGradient>
<linearGradient id="paint4_linear" x1="69.6823" y1="318.144" x2="42.1594" y2="318.144" gradientUnits="userSpaceOnUse">
<stop offset="1.09e-06" stop-color="#FFD000"/>
<stop offset="1" stop-color="#FF7300"/>
</linearGradient>
<linearGradient id="paint5_linear" x1="310.388" y1="257.699" x2="381.734" y2="257.699" gradientUnits="userSpaceOnUse">
<stop offset="1.09e-06" stop-color="#AF3D5E"/>
<stop offset="1" stop-color="#FF7300"/>
</linearGradient>
<linearGradient id="paint6_linear" x1="490.556" y1="201.604" x2="511.885" y2="201.604" gradientUnits="userSpaceOnUse">
<stop offset="1.09e-06" stop-color="#AF3D5E"/>
<stop offset="1" stop-color="#FF7300"/>
</linearGradient>
<linearGradient id="paint7_linear" x1="468.988" y1="171.359" x2="540.239" y2="171.359" gradientUnits="userSpaceOnUse">
<stop offset="1.09e-06" stop-color="#FFD000"/>
<stop offset="1" stop-color="#FF7300"/>
</linearGradient>
<linearGradient id="paint8_linear" x1="439.166" y1="250.556" x2="444.769" y2="250.556" gradientUnits="userSpaceOnUse">
<stop stop-color="#AACEFF"/>
<stop offset="1" stop-color="#DBE9FF"/>
</linearGradient>
<linearGradient id="paint9_linear" x1="432.417" y1="250.556" x2="438.02" y2="250.556" gradientUnits="userSpaceOnUse">
<stop stop-color="#AACEFF"/>
<stop offset="1" stop-color="#DBE9FF"/>
</linearGradient>
<linearGradient id="paint10_linear" x1="425.667" y1="250.556" x2="431.271" y2="250.556" gradientUnits="userSpaceOnUse">
<stop stop-color="#AACEFF"/>
<stop offset="1" stop-color="#DBE9FF"/>
</linearGradient>
<linearGradient id="paint11_linear" x1="418.917" y1="250.556" x2="424.521" y2="250.556" gradientUnits="userSpaceOnUse">
<stop stop-color="#AACEFF"/>
<stop offset="1" stop-color="#DBE9FF"/>
</linearGradient>
<linearGradient id="paint12_linear" x1="413.299" y1="250.556" x2="416.574" y2="250.556" gradientUnits="userSpaceOnUse">
<stop stop-color="#AACEFF"/>
<stop offset="1" stop-color="#DBE9FF"/>
</linearGradient>
<linearGradient id="paint13_linear" x1="409.32" y1="250.556" x2="412.595" y2="250.556" gradientUnits="userSpaceOnUse">
<stop stop-color="#AACEFF"/>
<stop offset="1" stop-color="#DBE9FF"/>
</linearGradient>
<linearGradient id="paint14_linear" x1="405.575" y1="250.556" x2="408.85" y2="250.556" gradientUnits="userSpaceOnUse">
<stop stop-color="#AACEFF"/>
<stop offset="1" stop-color="#DBE9FF"/>
</linearGradient>
<clipPath id="clip0">
<rect width="665" height="359" fill="white"/>
</clipPath>
</defs>
</svg>
